<svg width="1080" height="1920" viewBox="0 0 1080 1920" fill="none" xmlns="http://www.w3.org/2000/svg">
<defs>
  <linearGradient id="dbsc" x1="0" y1="1" x2="0" y2="0">
    <stop offset="0" stop-color="#000000" stop-opacity="0.85"/>
    <stop offset="1" stop-color="#000000" stop-opacity="0"/>
  </linearGradient>
</defs>
<rect x="0" y="960" width="1080" height="960" fill="url(#dbsc)"/>
<text id="title_text" x="48" y="1311" fill="#FFFFFF" stroke="#000000" stroke-width="4" stroke-linejoin="round" paint-order="stroke fill" font-family="Inter" font-size="53" font-weight="800" text-anchor="start" letter-spacing="-0.01em">Morning Run</text>
<rect x="48" y="1323" width="48" height="4" fill="#1FD1A7" opacity="1"/>
<rect x="48.0" y="1335" width="481.5" height="153" fill="#12141A" stroke="#2A2F3A" stroke-width="1" opacity="0.92" rx="16"/>
<rect x="66.0" y="1353" width="4" height="117" fill="#1FD1A7" opacity="1" rx="2"/>
<text id="metric_1_label" x="88.0" y="1371" fill="#B5BCC4" font-family="Inter" font-size="30" font-weight="700" letter-spacing="0.25em">DISTANCE</text>
<text id="metric_1_value" x="88.0" y="1466" fill="#FFFFFF" font-family="Inter" font-size="76" font-weight="800" letter-spacing="-0.02em">10.0</text>
<rect x="550.5" y="1335" width="481.5" height="153" fill="#12141A" stroke="#2A2F3A" stroke-width="1" opacity="0.92" rx="16"/>
<rect x="568.5" y="1353" width="4" height="117" fill="#1FD1A7" opacity="1" rx="2"/>
<text id="metric_2_label" x="590.5" y="1371" fill="#B5BCC4" font-family="Inter" font-size="30" font-weight="700" letter-spacing="0.25em">TIME</text>
<text id="metric_2_value" x="590.5" y="1466" fill="#FFFFFF" font-family="Inter" font-size="76" font-weight="800" letter-spacing="-0.02em">1:00:00</text>
<rect x="48.0" y="1509" width="481.5" height="153" fill="#12141A" stroke="#2A2F3A" stroke-width="1" opacity="0.92" rx="16"/>
<rect x="66.0" y="1527" width="4" height="117" fill="#1FD1A7" opacity="1" rx="2"/>
<text id="metric_3_label" x="88.0" y="1545" fill="#B5BCC4" font-family="Inter" font-size="30" font-weight="700" letter-spacing="0.25em">PACE</text>
<text id="metric_3_value" x="88.0" y="1640" fill="#FFFFFF" font-family="Inter" font-size="76" font-weight="800" letter-spacing="-0.02em">05:00</text>
<rect x="550.5" y="1509" width="481.5" height="153" fill="#12141A" stroke="#2A2F3A" stroke-width="1" opacity="0.92" rx="16"/>
<rect x="568.5" y="1527" width="4" height="117" fill="#1FD1A7" opacity="1" rx="2"/>
<text id="metric_4_label" x="590.5" y="1545" fill="#B5BCC4" font-family="Inter" font-size="30" font-weight="700" letter-spacing="0.25em">HEART</text>
<text id="metric_4_value" x="590.5" y="1640" fill="#FFFFFF" font-family="Inter" font-size="76" font-weight="800" letter-spacing="-0.02em">145</text>
<g id="elevation_chart">
  <g id="area"><rect x="48" y="1710" width="984" height="134" fill="#1FD1A7" opacity="0.28"/></g>
  <g id="full_path"><rect x="48" y="1710" width="984" height="134" stroke="#FFFFFF" stroke-width="2" opacity="0.18" fill="none"/></g>
  <g id="line"><rect x="48" y="1710" width="984" height="134" stroke="#1FD1A7" stroke-width="4" fill="none"/></g>
  <g id="glow"><ellipse cx="786.0" cy="1770.3" rx="14" ry="14" fill="#1FD1A7" opacity="0.35"/></g>
  <g id="dot"><ellipse cx="786.0" cy="1770.3" rx="7" ry="7" fill="#1FD1A7" stroke="#000000" stroke-width="2"/></g>
</g>
</svg>
