<svg width="1080" height="1350" viewBox="0 0 1080 1350" fill="none" xmlns="http://www.w3.org/2000/svg">
<defs>
  <linearGradient id="db_scrim" x1="0" y1="1" x2="0" y2="0">
    <stop offset="0" stop-color="#000000" stop-opacity="0.85"/>
    <stop offset="1" stop-color="#000000" stop-opacity="0"/>
  </linearGradient>
</defs>
<rect x="0" y="607" width="1080" height="742" fill="url(#db_scrim)"/>
<text id="title_text" x="48" y="702" fill="#FFFFFF" font-family="Inter" font-size="40" font-weight="700" text-anchor="start" letter-spacing="-0.01em">Morning Run</text>
<rect x="48" y="712" width="48" height="4" fill="#1FD1A7" opacity="1"/>
<rect x="48.0" y="742" width="481.5" height="162" fill="#14161A" stroke="#262931" stroke-width="1" opacity="1" rx="14"/>
<rect x="68.0" y="762" width="3" height="122" fill="#1FD1A7" opacity="1"/>
<text id="metric_1_label" x="88.0" y="780" fill="#9AA0A6" font-family="Inter" font-size="20" font-weight="600" text-anchor="start" letter-spacing="0.2em">DISTANCE</text>
<text id="metric_1_value" x="88.0" y="876" fill="#FFFFFF" font-family="Inter" font-size="60" font-weight="700" text-anchor="start" letter-spacing="-0.02em">10.0</text>
<rect x="550.5" y="742" width="481.5" height="162" fill="#14161A" stroke="#262931" stroke-width="1" opacity="1" rx="14"/>
<rect x="570.5" y="762" width="3" height="122" fill="#1FD1A7" opacity="1"/>
<text id="metric_2_label" x="590.5" y="780" fill="#9AA0A6" font-family="Inter" font-size="20" font-weight="600" text-anchor="start" letter-spacing="0.2em">TIME</text>
<text id="metric_2_value" x="590.5" y="876" fill="#FFFFFF" font-family="Inter" font-size="60" font-weight="700" text-anchor="start" letter-spacing="-0.02em">1:00:00</text>
<rect x="48.0" y="925" width="481.5" height="162" fill="#14161A" stroke="#262931" stroke-width="1" opacity="1" rx="14"/>
<rect x="68.0" y="945" width="3" height="122" fill="#1FD1A7" opacity="1"/>
<text id="metric_3_label" x="88.0" y="963" fill="#9AA0A6" font-family="Inter" font-size="20" font-weight="600" text-anchor="start" letter-spacing="0.2em">PACE</text>
<text id="metric_3_value" x="88.0" y="1059" fill="#FFFFFF" font-family="Inter" font-size="60" font-weight="700" text-anchor="start" letter-spacing="-0.02em">05:00</text>
<rect x="550.5" y="925" width="481.5" height="162" fill="#14161A" stroke="#262931" stroke-width="1" opacity="1" rx="14"/>
<rect x="570.5" y="945" width="3" height="122" fill="#1FD1A7" opacity="1"/>
<text id="metric_4_label" x="590.5" y="963" fill="#9AA0A6" font-family="Inter" font-size="20" font-weight="600" text-anchor="start" letter-spacing="0.2em">HEART</text>
<text id="metric_4_value" x="590.5" y="1059" fill="#FFFFFF" font-family="Inter" font-size="60" font-weight="700" text-anchor="start" letter-spacing="-0.02em">145</text>
<g id="elevation_chart">
  <g id="area"><rect x="48" y="1107" width="984" height="135" fill="#1FD1A7" opacity="0.25"/></g>
  <g id="full_path"><rect x="48" y="1107" width="984" height="135" stroke="#FFFFFF" stroke-width="2" opacity="0.12" fill="none"/></g>
  <g id="line"><rect x="48" y="1107" width="984" height="135" stroke="#1FD1A7" stroke-width="3" fill="none"/></g>
  <g id="glow"><ellipse cx="786.0" cy="1167.75" rx="10" ry="10" fill="#1FD1A7" opacity="0.35"/></g>
  <g id="dot"><ellipse cx="786.0" cy="1167.75" rx="5" ry="5" fill="#1FD1A7"/></g>
</g>
</svg>
