<svg width="1920" height="1080" viewBox="0 0 1920 1080" fill="none" xmlns="http://www.w3.org/2000/svg">
<defs>
  <linearGradient id="dbsc" x1="0" y1="1" x2="0" y2="0">
    <stop offset="0" stop-color="#000000" stop-opacity="0.85"/>
    <stop offset="1" stop-color="#000000" stop-opacity="0"/>
  </linearGradient>
</defs>
<rect x="0" y="540" width="1920" height="540" fill="url(#dbsc)"/>
<text id="title_text" x="86" y="646" fill="#FFFFFF" stroke="#000000" stroke-width="2" stroke-linejoin="round" paint-order="stroke fill" font-family="Inter" font-size="28" font-weight="800" text-anchor="start" letter-spacing="-0.01em">Morning Run</text>
<rect x="86" y="658" width="48" height="4" fill="#1FD1A7" opacity="1"/>
<rect x="86.0" y="670" width="855.0" height="105" fill="#12141A" stroke="#2A2F3A" stroke-width="1" opacity="0.92" rx="16"/>
<rect x="104.0" y="688" width="4" height="69" fill="#1FD1A7" opacity="1" rx="2"/>
<text id="metric_1_label" x="126.0" y="706" fill="#B5BCC4" font-family="Inter" font-size="18" font-weight="700" letter-spacing="0.25em">DISTANCE</text>
<text id="metric_1_value" x="126.0" y="753" fill="#FFFFFF" font-family="Inter" font-size="52" font-weight="800" letter-spacing="-0.02em">10.0</text>
<rect x="979.0" y="670" width="855.0" height="105" fill="#12141A" stroke="#2A2F3A" stroke-width="1" opacity="0.92" rx="16"/>
<rect x="997.0" y="688" width="4" height="69" fill="#1FD1A7" opacity="1" rx="2"/>
<text id="metric_2_label" x="1019.0" y="706" fill="#B5BCC4" font-family="Inter" font-size="18" font-weight="700" letter-spacing="0.25em">TIME</text>
<text id="metric_2_value" x="1019.0" y="753" fill="#FFFFFF" font-family="Inter" font-size="52" font-weight="800" letter-spacing="-0.02em">1:00:00</text>
<rect x="86.0" y="813" width="855.0" height="105" fill="#12141A" stroke="#2A2F3A" stroke-width="1" opacity="0.92" rx="16"/>
<rect x="104.0" y="831" width="4" height="69" fill="#1FD1A7" opacity="1" rx="2"/>
<text id="metric_3_label" x="126.0" y="849" fill="#B5BCC4" font-family="Inter" font-size="18" font-weight="700" letter-spacing="0.25em">PACE</text>
<text id="metric_3_value" x="126.0" y="896" fill="#FFFFFF" font-family="Inter" font-size="52" font-weight="800" letter-spacing="-0.02em">05:00</text>
<rect x="979.0" y="813" width="855.0" height="105" fill="#12141A" stroke="#2A2F3A" stroke-width="1" opacity="0.92" rx="16"/>
<rect x="997.0" y="831" width="4" height="69" fill="#1FD1A7" opacity="1" rx="2"/>
<text id="metric_4_label" x="1019.0" y="849" fill="#B5BCC4" font-family="Inter" font-size="18" font-weight="700" letter-spacing="0.25em">HEART</text>
<text id="metric_4_value" x="1019.0" y="896" fill="#FFFFFF" font-family="Inter" font-size="52" font-weight="800" letter-spacing="-0.02em">145</text>
<g id="elevation_chart">
  <g id="area"><rect x="86" y="945" width="1748" height="90" fill="#1FD1A7" opacity="0.28"/></g>
  <g id="full_path"><rect x="86" y="945" width="1748" height="90" stroke="#FFFFFF" stroke-width="2" opacity="0.18" fill="none"/></g>
  <g id="line"><rect x="86" y="945" width="1748" height="90" stroke="#1FD1A7" stroke-width="4" fill="none"/></g>
  <g id="glow"><ellipse cx="1397.0" cy="985.5" rx="14" ry="14" fill="#1FD1A7" opacity="0.35"/></g>
  <g id="dot"><ellipse cx="1397.0" cy="985.5" rx="7" ry="7" fill="#1FD1A7" stroke="#000000" stroke-width="2"/></g>
</g>
</svg>
